<svg xmlns="http://www.w3.org/2000/svg" xmlns:xlink="http://www.w3.org/1999/xlink" width="184" height="47.867" viewBox="0 0 184 47.867"><defs><linearGradient id="a" x1="0.5" x2="0.5" y2="1" gradientUnits="objectBoundingBox"><stop offset="0" stop-color="#f9a924"/><stop offset="1" stop-color="#ff9b07"/></linearGradient></defs><g transform="translate(-98 -63)"><path d="M94.979,3.642H25.861a21.619,21.619,0,0,0-.053,43.238H94.979v.842H25.861a22.461,22.461,0,1,1,0-44.922H95.032v.842Z" transform="translate(96.389 61.672)" fill="url(#a)"/><path d="M164.247,30.8h0a2.357,2.357,0,0,1,2.367,2.367V37.48h4.313a2.357,2.357,0,0,1,2.367,2.367h0a2.357,2.357,0,0,1-2.367,2.367h-4.313v4.313a2.367,2.367,0,0,1-4.734,0V42.215h-4.313a2.357,2.357,0,0,1-2.367-2.367h0a2.357,2.357,0,0,1,2.367-2.367h4.313V33.167a2.357,2.357,0,0,1,2.367-2.367" transform="translate(24.438 48.4)" fill-rule="evenodd" fill="url(#a)"/><path d="M160.014.21H23.934a23.7,23.7,0,0,0-16.78,7A23.442,23.442,0,0,0,.21,23.934,23.887,23.887,0,0,0,23.986,47.71H160.119A23.73,23.73,0,0,0,176.9,7.154,24.093,24.093,0,0,0,160.014.21M23.934,0H160.066a23.686,23.686,0,0,1,16.885,7.049,23.934,23.934,0,0,1-16.885,40.819H23.934A23.686,23.686,0,0,1,7.049,40.819,23.934,23.934,0,0,1,23.934,0Z" transform="translate(98 63)" fill="url(#a)"/><path d="M241.492.2a23.828,23.828,0,0,1,0,47.657H171.9V.2Z" transform="translate(16.522 62.904)" fill-rule="evenodd" fill="url(#a)"/><path d="M316.233,26.84c1.1,1-.526,2.788-2,1.788a7.708,7.708,0,0,0-4.839-2.1,4,4,0,0,0-2.577.842,2.472,2.472,0,0,0-1.052,2,2.883,2.883,0,0,0,.894,1.946,12.361,12.361,0,0,0,3.735,2.209,14.292,14.292,0,0,1,4.682,3,5.008,5.008,0,0,1,1.21,3.261,5.473,5.473,0,0,1-2.1,4.366,7.553,7.553,0,0,1-5.208,1.788,10.615,10.615,0,0,1-4-.789,8.413,8.413,0,0,1-3.1-2.157c-.842-1.052.579-2.946,1.946-1.946a7.229,7.229,0,0,0,5.05,2.314,4.961,4.961,0,0,0,3.156-1.052,3.158,3.158,0,0,0,1.315-2.42,2.779,2.779,0,0,0-.842-2.051,14.893,14.893,0,0,0-3.892-2.209,12.231,12.231,0,0,1-4.419-2.893,4.82,4.82,0,0,1-1.157-3.209,4.929,4.929,0,0,1,1.894-3.945A7.145,7.145,0,0,1,309.658,24a10.729,10.729,0,0,1,6.575,2.84" transform="translate(-44.963 51.625)" fill="#fff"/><path d="M39.432,33.039a7.627,7.627,0,0,0-11.046,0,8.522,8.522,0,0,0,0,11.678,7.627,7.627,0,0,0,11.046,0,8.459,8.459,0,0,0,2.314-5.839,8.557,8.557,0,0,0-2.314-5.839m5.681,15.728a1.788,1.788,0,1,1-3.577,0V47.452a10.9,10.9,0,0,1-7.68,3.1,11.014,11.014,0,0,1-8-3.472A11.659,11.659,0,0,1,22.6,38.878a11.891,11.891,0,0,1,3.261-8.206,11.221,11.221,0,0,1,8-3.472,11.014,11.014,0,0,1,8,3.472,11.658,11.658,0,0,1,3.261,8.206C45.166,42.191,45.113,45.505,45.113,48.767Z" transform="translate(87.288 50.107)" fill-rule="evenodd" fill="url(#a)"/><path d="M88.332,27.019a7.627,7.627,0,0,0-11.046,0,8.522,8.522,0,0,0,0,11.678,7.627,7.627,0,0,0,11.046,0,8.459,8.459,0,0,0,2.314-5.839,8.557,8.557,0,0,0-2.314-5.839M73.341,14.5h0a1.774,1.774,0,0,1,1.788,1.788v8a10.869,10.869,0,0,1,7.627-3.1,11.014,11.014,0,0,1,8,3.472,11.658,11.658,0,0,1,3.261,8.206,11.891,11.891,0,0,1-3.261,8.206,11.221,11.221,0,0,1-8,3.472,11.014,11.014,0,0,1-8-3.472A11.659,11.659,0,0,1,71.5,32.858c0-5.523.053-11.046.053-16.569A1.844,1.844,0,0,1,73.341,14.5Z" transform="translate(64.11 56.127)" fill-rule="evenodd" fill="url(#a)"/><path d="M212.832,39.916a7.627,7.627,0,0,1-11.046,0,8.522,8.522,0,0,1,0-11.678,7.627,7.627,0,0,1,11.046,0,8.459,8.459,0,0,1,2.314,5.839,8.557,8.557,0,0,1-2.314,5.839M197.841,52.435h0a1.774,1.774,0,0,0,1.788-1.788v-8a10.869,10.869,0,0,0,7.627,3.1,11.014,11.014,0,0,0,8-3.472,11.659,11.659,0,0,0,3.261-8.206,11.891,11.891,0,0,0-3.261-8.206,11.221,11.221,0,0,0-8-3.472,11.014,11.014,0,0,0-8,3.472A11.659,11.659,0,0,0,196,34.078c0,5.523.053,11.046.053,16.569A1.843,1.843,0,0,0,197.841,52.435Z" transform="translate(5.099 52.383)" fill="#fff" fill-rule="evenodd"/><path d="M133.7,25.287h0a1.756,1.756,0,0,1,1.1,2.314l-8.679,21.2a1.981,1.981,0,0,1-3.209,0l-8.732-21.2a1.756,1.756,0,0,1,1.1-2.314,1.924,1.924,0,0,1,2.472,1.052L124.5,42.7l6.733-16.359a1.924,1.924,0,0,1,2.472-1.052" transform="translate(43.936 51.074)" fill-rule="evenodd" fill="url(#a)"/><path d="M246.688,6.7h0a1.774,1.774,0,0,1,1.788,1.788V36.683a1.774,1.774,0,0,1-1.788,1.788h0a1.774,1.774,0,0,1-1.788-1.788V8.488A1.774,1.774,0,0,1,246.688,6.7" transform="translate(-18.079 59.824)" fill="#fff" fill-rule="evenodd"/><path d="M278.778,34.394v.473h0v.053a12.6,12.6,0,0,1-3.156,8.258,9.7,9.7,0,0,1-7.417,3.314h-.053a9.918,9.918,0,0,1-7.1-3.366A12.737,12.737,0,0,1,258,35.183v-9.1a1.608,1.608,0,0,1,1.578-1.683,1.677,1.677,0,0,1,1.578,1.683l.053,8.942a8.829,8.829,0,0,0,2.157,5.628,6.706,6.706,0,0,0,4.839,2.367h.053a6.573,6.573,0,0,0,5.1-2.314,8.816,8.816,0,0,0,2.262-5.839V26.083A1.608,1.608,0,0,1,277.2,24.4a1.677,1.677,0,0,1,1.578,1.683Z" transform="translate(-24.288 51.436)" fill="#fff"/><path d="M172.4,30.8h0a2.357,2.357,0,0,1,2.367,2.367V37.48h4.313a2.357,2.357,0,0,1,2.367,2.367h0a2.357,2.357,0,0,1-2.367,2.367h-4.313v4.313a2.357,2.357,0,0,1-2.367,2.367Z" transform="translate(16.285 48.4)" fill="#fff" fill-rule="evenodd"/><path d="M172,2.8h69.171a22.461,22.461,0,1,1,0,44.922H172V46.88h69.171a21.379,21.379,0,0,0,15.254-6.365,21.6,21.6,0,0,0,6.365-15.254A21.732,21.732,0,0,0,241.171,3.642H172Z" transform="translate(16.475 61.672)" fill="#fff"/></g></svg>