<svg xmlns="http://www.w3.org/2000/svg" width="140.559" height="22.832" viewBox="0 0 140.559 22.832">
  <g id="Group_5687" data-name="Group 5687" opacity="0.2">
    <path id="Path_6451" data-name="Path 6451" d="M263.58,32.16c.989,0,2.423-.319,2.392-1.467-.064-3.252-10.14-.415-10.14-6.792,0-3.858,4.018-5.1,7.43-5.1,3.571,0,7.749.478,8.131,4.847h-5.74a1.609,1.609,0,0,0-.638-1.18,2.582,2.582,0,0,0-1.5-.415c-1.116,0-1.849.351-1.849,1.148,0,2.3,10.2-.159,10.172,6.856,0,3.221-2.519,5.612-8.546,5.58-3.508,0-7.493-1.18-7.493-5.74h5.357A2.586,2.586,0,0,0,263.58,32.16Z" transform="translate(-174.233 -12.805)"/>
    <rect id="Rectangle_5603" data-name="Rectangle 5603" width="6.059" height="15.975" transform="translate(134.5 6.569)"/>
    <rect id="Rectangle_5604" data-name="Rectangle 5604" width="6.059" height="4.145" transform="translate(134.5 0.096)"/>
    <path id="Path_6452" data-name="Path 6452" d="M131.954,27.986l2.328,7.812h5.963L145.7,19.6h-6.346l-2.487,8.354h.1L134.409,19.6h-5.261l-2.519,8.354h-.064L124.046,19.6H117.7l5.485,16.2h6.346l2.328-7.812" transform="translate(-80.169 -13.35)"/>
    <path id="Path_6453" data-name="Path 6453" d="M0,.3V22.62H6.473v-6.6L8.61,13.692l5.9,8.928h7.94L13.361,9.037,21.524.3H13.042L6.473,7.219V.3Z" transform="translate(0 -0.204)"/>
    <path id="Path_6454" data-name="Path 6454" d="M370.818,18.048v4.528H364.6V0h6.218V11.128l3.89-4.528h6.633l-5.325,5.963,6.218,10.012h-6.856L372,17.091Z" transform="translate(-248.339)"/>
    <path id="Path_6455" data-name="Path 6455" d="M84.177,33.229V25.545c0-3.667-1.275-6.377-7.78-6.345-5.8.032-7.94,2.041-8.323,5.453h5.58a2.623,2.623,0,0,1,2.838-2.009c.7,0,1.945.159,1.945,1.339,0,3.061-10.842.957-10.937,7.047,0,3.412,2.232,4.847,5.325,4.847A8.953,8.953,0,0,0,78.5,34.409l.733,1.212H84.4V35.43A6.974,6.974,0,0,1,84.177,33.229ZM75.6,32.3c-1.275.128-2.232-.319-2.232-1.148h0c0-2.136,2.647-1.881,4.783-2.934C78.278,30.487,77.8,32.081,75.6,32.3Z" transform="translate(-45.976 -13.077)"/>
    <path id="Path_6456" data-name="Path 6456" d="M325.577,33.229V25.545c0-3.667-1.275-6.377-7.78-6.345-5.8.032-7.94,2.041-8.323,5.453h5.58a2.623,2.623,0,0,1,2.838-2.009c.7,0,1.945.159,1.945,1.339,0,3.061-10.842.957-10.937,7.047,0,3.412,2.232,4.847,5.325,4.847a8.953,8.953,0,0,0,5.676-1.467l.733,1.212h5.2V35.43A4.991,4.991,0,0,1,325.577,33.229Zm-8.61-.925c-1.275.128-2.232-.319-2.232-1.148h0c0-2.136,2.647-1.881,4.783-2.934C319.678,30.487,319.168,32.081,316.967,32.3Z" transform="translate(-210.401 -13.077)"/>
    <path id="Path_6457" data-name="Path 6457" d="M217.777,33.229V25.545c0-3.667-1.275-6.377-7.78-6.345-5.8.032-7.94,2.041-8.323,5.453h5.58a2.623,2.623,0,0,1,2.838-2.009c.7,0,1.945.159,1.945,1.339,0,3.061-10.842.957-10.937,7.047,0,3.412,2.232,4.847,5.325,4.847a8.953,8.953,0,0,0,5.676-1.467l.733,1.212H218V35.43A6.973,6.973,0,0,1,217.777,33.229ZM209.2,32.3c-1.275.128-2.232-.319-2.232-1.148h0c0-2.136,2.647-1.881,4.783-2.934C211.878,30.487,211.4,32.081,209.2,32.3Z" transform="translate(-136.975 -13.077)"/>
  </g>
</svg>
