<svg xmlns="http://www.w3.org/2000/svg" width="135.81" height="25.809" viewBox="0 0 135.81 25.809">
  <g id="Group_5688" data-name="Group 5688" opacity="0.2">
    <path id="Path_6458" data-name="Path 6458" d="M265.6,15.2,259.068,0H251.8V25.809h6.655V11.2l6.294,14.609h7.521V0H265.6Z" transform="translate(-206.386 0)"/>
    <path id="Path_6459" data-name="Path 6459" d="M132.3,25.809h18.162V21.083H139.8V15.15h8.964V10.172H139.8V4.96h10.659V0H132.3Z" transform="translate(-108.439 0)"/>
    <path id="Path_6460" data-name="Path 6460" d="M401.927,0H379.4V4.96h7.5V25.809h7.5V4.96h7.521Z" transform="translate(-310.972 0)"/>
    <path id="Path_6461" data-name="Path 6461" d="M499.15,0h-6.782L484,25.809h6.962l1.028-4h7.521v-.018l1.028,4.022H507.5Zm-6.06,17.314L495.759,7.07l2.615,10.244Z" transform="translate(-396.706 0)"/>
    <path id="Path_6462" data-name="Path 6462" d="M633.895,12.408,640.622,0h-7.16l-3.806,8.242L625.9,0H617.9l7.395,12.589L617.5,25.809h8.026l4.238-9,4.617,9h7.557Z" transform="translate(-506.129 0)"/>
    <path id="Path_6463" data-name="Path 6463" d="M13.689,0H0V25.809H7.5V19.622h6.186c7.323,0,7.5-4.473,7.5-6.294V6.962C21.192,1.082,16.178,0,13.689,0Zm0,11.687c0,2.777-2,2.976-2.85,2.976H7.5V4.96h3.824c2.236,0,2.363,1.641,2.363,2.6Z" transform="translate(0 0)"/>
  </g>
</svg>
