<svg xmlns="http://www.w3.org/2000/svg" width="18" height="18" viewBox="0 0 18 18">
  <g id="_1484162408_038_011_instagram_mobile_photo_network_android_material" data-name="1484162408_038_011_instagram_mobile_photo_network_android_material" transform="translate(-3 -3)">
    <path id="Path_6464" data-name="Path 6464" d="M15.5,3h-7A5.5,5.5,0,0,0,3,8.5v7A5.5,5.5,0,0,0,8.5,21h7A5.5,5.5,0,0,0,21,15.5v-7A5.5,5.5,0,0,0,15.5,3Zm4,12.5a4,4,0,0,1-4,4h-7a4,4,0,0,1-4-4v-7a4,4,0,0,1,4-4h7a4,4,0,0,1,4,4Z" fill="#a0a0a0"/>
    <path id="Path_6465" data-name="Path 6465" d="M12,7.5A4.5,4.5,0,1,0,16.5,12,4.5,4.5,0,0,0,12,7.5ZM12,15a3,3,0,1,1,3-3,3,3,0,0,1-3,3Z" fill="#a0a0a0"/>
    <circle id="Ellipse_992" data-name="Ellipse 992" cx="1" cy="1" r="1" transform="translate(15.7 6.3)" fill="#a0a0a0"/>
  </g>
</svg>
