<svg xmlns="http://www.w3.org/2000/svg" xmlns:xlink="http://www.w3.org/1999/xlink" width="53.685" height="51" viewBox="0 0 53.685 51"><defs><linearGradient id="a" x1="0.5" x2="0.5" y2="1" gradientUnits="objectBoundingBox"><stop offset="0" stop-color="#f9a924"/><stop offset="1" stop-color="#ff9b07"/></linearGradient></defs><g transform="translate(0.5 -12.545)"><g transform="translate(41.168 17.519)"><path d="M400.921,56.527h-.009a.843.843,0,1,0,.009,0Z" transform="translate(-400.078 -56.527)" stroke="rgba(0,0,0,0)" stroke-width="1" fill="url(#a)"/></g><g transform="translate(0 15.73)"><path d="M29.935,75.2,21.95,71.872a.948.948,0,0,1-.585-.878V69.3l1.493-.829a4.415,4.415,0,0,0,2.254-3.462l0-.036h.78a2.632,2.632,0,0,0,2.629-2.629V60.728a13.237,13.237,0,0,0,.895-4.9,12.97,12.97,0,0,0-3.824-9.212,13.194,13.194,0,0,0-3.169-2.346c-.04-2.84-2.883-5.14-6.374-5.14s-6.333,2.3-6.374,5.14A13.188,13.188,0,0,0,6.509,46.62a12.97,12.97,0,0,0-3.824,9.212,13.238,13.238,0,0,0,.895,4.9v1.616a2.632,2.632,0,0,0,2.629,2.629h.78l0,.036a4.415,4.415,0,0,0,2.254,3.462l1.493.829v1.694a.948.948,0,0,1-.585.878L2.168,75.2A3.514,3.514,0,0,0,0,78.452v5.369a2.632,2.632,0,0,0,2.629,2.629H29.474A2.632,2.632,0,0,0,32.1,83.821V78.452A3.515,3.515,0,0,0,29.935,75.2ZM26.846,62.344a.952.952,0,0,1-.951.951h-.627L25.6,59.6h.291a.952.952,0,0,1,.951.951ZM16.051,40.812c2.2,0,4.047,1.137,4.557,2.668a13.925,13.925,0,0,0-9.115,0C12,41.949,13.854,40.812,16.051,40.812ZM6.208,63.295a.952.952,0,0,1-.951-.951v-1.79a.952.952,0,0,1,.951-.951H6.5l.336,3.691ZM10.06,67a2.738,2.738,0,0,1-1.4-2.148l-.639-7.025a27.356,27.356,0,0,0,5.272-.567A18.867,18.867,0,0,0,24.151,51.25a.839.839,0,0,0-1.286-1.078c-5.458,6.507-15.571,5.974-15.71,5.966h0a.834.834,0,0,0-.888.912l.079.875H6.208a2.616,2.616,0,0,0-1.568.52,12.457,12.457,0,0,1-.277-2.615A11.3,11.3,0,0,1,7.7,47.8a11.7,11.7,0,0,1,8.355-3.414A11.7,11.7,0,0,1,24.406,47.8a11.3,11.3,0,0,1,3.335,8.027,12.452,12.452,0,0,1-.277,2.615,2.615,2.615,0,0,0-1.568-.521h-.139l.08-.875a.839.839,0,0,0-.242-.669l-1.79-1.79a.839.839,0,0,0-1.186,1.186l1.512,1.512-.6,6.571c-.685.606-2.858,2.118-7.48,2.118a.839.839,0,1,0,0,1.678,15.186,15.186,0,0,0,6.835-1.382,2.737,2.737,0,0,1-.844.73l-4.66,2.589a2.724,2.724,0,0,1-2.662,0Zm.738,6.416a2.622,2.622,0,0,0,1.618-2.426v-.762l1.49.828a4.392,4.392,0,0,0,4.292,0l1.49-.828v.762A2.621,2.621,0,0,0,21.3,73.421l.88.367a11.59,11.59,0,0,1-4.125,3.179,6.037,6.037,0,0,1-2.008.534,6.034,6.034,0,0,1-2.008-.534,11.589,11.589,0,0,1-4.125-3.179ZM5.369,84.771H2.629a.952.952,0,0,1-.951-.951V78.452a1.848,1.848,0,0,1,.122-.662l2.876,2.3a1.836,1.836,0,0,1,.693,1.441v3.24Zm19.687-3.24v3.24H7.047v-3.24A3.506,3.506,0,0,0,5.725,78.78L3.057,76.646,8.3,74.463c2.764,3.419,5.559,4.36,6.915,4.618v2.838a.839.839,0,1,0,1.678,0V79.081c1.357-.258,4.151-1.2,6.915-4.618l5.24,2.183L26.378,78.78A3.507,3.507,0,0,0,25.056,81.532Zm5.369,2.289a.952.952,0,0,1-.951.951H26.734v-3.24a1.837,1.837,0,0,1,.693-1.441l2.876-2.3a1.848,1.848,0,0,1,.122.662v5.369Z" transform="translate(0 -39.134)" stroke="rgba(0,0,0,0)" stroke-width="1" fill="url(#a)"/></g><g transform="translate(10.008 35.416)"><path d="M102.266,231.824a2.9,2.9,0,0,0-4.927,0,.839.839,0,0,0,1.512.728,1.288,1.288,0,0,1,1.9,0,.839.839,0,1,0,1.511-.728Z" transform="translate(-97.256 -230.454)" stroke="rgba(0,0,0,0)" stroke-width="1" fill="url(#a)"/></g><g transform="translate(17.002 35.416)"><path d="M170.239,231.824a2.9,2.9,0,0,0-4.927,0,.839.839,0,0,0,1.512.728,1.288,1.288,0,0,1,1.9,0,.839.839,0,1,0,1.511-.728Z" transform="translate(-165.229 -230.454)" stroke="rgba(0,0,0,0)" stroke-width="1" fill="url(#a)"/></g><g transform="translate(31.32 13.045)"><g transform="translate(0 0)"><path d="M315.056,13.045a10.674,10.674,0,0,0-7.067,18.68,13.833,13.833,0,0,1-2.426,3,.839.839,0,0,0,.545,1.477l.067,0a14.036,14.036,0,0,0,6.083-2.159,10.683,10.683,0,1,0,2.8-20.993Zm0,19.687a9,9,0,0,1-2.7-.413.839.839,0,0,0-.746.123,11.084,11.084,0,0,1-3.14,1.552,16.641,16.641,0,0,0,1.337-2.062.839.839,0,0,0-.225-1.068,8.992,8.992,0,1,1,5.474,1.868Z" transform="translate(-304.374 -13.045)" stroke="rgba(0,0,0,0)" stroke-width="1" fill="url(#a)"/></g></g><g transform="translate(40.268 21.099)"><path d="M393.966,98.471h-.056V92.99h.056a.839.839,0,0,0,0-1.678h-1.79a.839.839,0,0,0,0,1.678h.056v5.481h-.056a.839.839,0,0,0,0,1.678h1.79a.839.839,0,0,0,0-1.678Z" transform="translate(-391.337 -91.312)" stroke="rgba(0,0,0,0)" stroke-width="1" fill="url(#a)"/></g></g></svg>