<svg xmlns="http://www.w3.org/2000/svg" xmlns:xlink="http://www.w3.org/1999/xlink" width="50" height="43.168" viewBox="0 0 50 43.168"><defs><linearGradient id="a" x1="0.5" x2="0.5" y2="1" gradientUnits="objectBoundingBox"><stop offset="0" stop-color="#f9a924"/><stop offset="1" stop-color="#ff9b07"/></linearGradient></defs><g transform="translate(0 -34.973)"><g transform="translate(0 48.823)"><path d="M49.268,176.806a.732.732,0,0,0-.732.732v26.968a.153.153,0,0,1-.153.153H45.917V179.977a.732.732,0,0,0-.732-.732H36.911a.732.732,0,0,0-.732.732v4.557H29.246a.732.732,0,0,0-.732.732v2.92H17.9a.732.732,0,0,0-.732.732v9.119H11.993v-1.924a.732.732,0,0,0-.732-.732H4.651a.732.732,0,0,0-.732.732v8.546h-2.3a.153.153,0,0,1-.153-.153V190.234a.732.732,0,0,0-1.465,0v14.273a1.62,1.62,0,0,0,1.618,1.618H48.382A1.62,1.62,0,0,0,50,204.507V177.538A.732.732,0,0,0,49.268,176.806ZM44.452,204.66H41.684V184.54a.732.732,0,0,0-1.465,0v20.12H37.643v-15.4a.732.732,0,0,0-1.465,0v15.4H33.6v-15.4a.732.732,0,0,0-1.465,0v15.4H29.561V192.973a.732.732,0,0,0-1.465,0V204.66H25.52V192.973a.732.732,0,0,0-1.465,0V204.66H21.478V192.973a.732.732,0,0,0-1.465,0V204.66H17.437v-2.983a.732.732,0,1,0-1.465,0v2.983H13.4v-2.983a.732.732,0,0,0-1.465,0v2.983H9.355v-4.848a.732.732,0,0,0-1.465,0v4.848H5.384v-7.813h5.144v1.924a.732.732,0,0,0,.732.732H17.9a.732.732,0,0,0,.732-.732v-9.119H29.246a.732.732,0,0,0,.732-.732V186h6.932a.732.732,0,0,0,.732-.732v-4.557h6.809v23.95Z" transform="translate(0 -176.806)" fill="url(#a)"/></g><g transform="translate(0 34.972)"><path d="M47.33,34.972H11.553a.732.732,0,0,0,0,1.465H47.33a1.206,1.206,0,0,1,1.2,1.2v4.646H1.465V37.642a1.206,1.206,0,0,1,1.2-1.2H8.563a.732.732,0,0,0,0-1.465H2.67A2.673,2.673,0,0,0,0,37.642V59.261a.732.732,0,0,0,1.465,0V43.752h47.07v2.813a.732.732,0,0,0,1.465,0V37.642A2.673,2.673,0,0,0,47.33,34.972Z" transform="translate(0 -34.972)" fill="url(#a)"/></g><g transform="translate(6.51 38.765)"><path d="M93.519,73.813H67.392a.732.732,0,0,0,0,1.465H93.519a.732.732,0,1,0,0-1.465Z" transform="translate(-66.66 -73.813)" fill="url(#a)"/></g><g transform="translate(36.178 38.566)"><path d="M371.2,71.776a.732.732,0,0,0-.732.732v.127a.732.732,0,0,0,1.465,0v-.127A.732.732,0,0,0,371.2,71.776Z" transform="translate(-370.464 -71.776)" fill="url(#a)"/></g><g transform="translate(39.102 38.566)"><path d="M401.134,71.776a.732.732,0,0,0-.732.732v.127a.732.732,0,0,0,1.465,0v-.127A.732.732,0,0,0,401.134,71.776Z" transform="translate(-400.402 -71.776)" fill="url(#a)"/></g><g transform="translate(42.025 38.566)"><path d="M431.072,71.776a.732.732,0,0,0-.732.732v.127a.732.732,0,0,0,1.465,0v-.127A.732.732,0,0,0,431.072,71.776Z" transform="translate(-430.34 -71.776)" fill="url(#a)"/></g><g transform="translate(21.906 47.984)"><path d="M225.053,168.214a.732.732,0,0,0-.732.732v.165a.732.732,0,0,0,1.465,0v-.165A.732.732,0,0,0,225.053,168.214Z" transform="translate(-224.321 -168.214)" fill="url(#a)"/></g><g transform="translate(25.693 47.984)"><path d="M263.827,168.214a.732.732,0,0,0-.732.732v.165a.732.732,0,0,0,1.465,0v-.165A.732.732,0,0,0,263.827,168.214Z" transform="translate(-263.095 -168.214)" fill="url(#a)"/></g><g transform="translate(29.479 47.984)"><path d="M302.6,168.214a.732.732,0,0,0-.732.732v.165a.732.732,0,0,0,1.465,0v-.165A.732.732,0,0,0,302.6,168.214Z" transform="translate(-301.868 -168.214)" fill="url(#a)"/></g></g></svg>