<svg xmlns="http://www.w3.org/2000/svg" xmlns:xlink="http://www.w3.org/1999/xlink" width="16" height="16.676" viewBox="0 0 16 16.676"><defs><linearGradient id="a" x1="0.5" x2="0.5" y2="1" gradientUnits="objectBoundingBox"><stop offset="0" stop-color="#f9a924"/><stop offset="1" stop-color="#ff9b07"/></linearGradient></defs><g transform="translate(-10.359 0.002)"><g transform="translate(10.359 -0.002)"><g transform="translate(0 0)"><path d="M25.588,8.552a.489.489,0,0,1,0-.432l.622-1.272a1.448,1.448,0,0,0-.625-1.922l-1.251-.664a.489.489,0,0,1-.254-.349l-.245-1.395A1.448,1.448,0,0,0,22.2,1.329l-1.4.2a.489.489,0,0,1-.411-.133L19.37.409a1.447,1.447,0,0,0-2.021,0l-1.018.985a.489.489,0,0,1-.411.133l-1.4-.2a1.447,1.447,0,0,0-1.635,1.188l-.245,1.395a.489.489,0,0,1-.254.349l-1.251.664a1.448,1.448,0,0,0-.625,1.922L11.13,8.12a.489.489,0,0,1,0,.432l-.622,1.272a1.448,1.448,0,0,0,.625,1.922l1.251.664a.489.489,0,0,1,.254.349l.245,1.395a1.447,1.447,0,0,0,1.427,1.2,1.487,1.487,0,0,0,.208-.015l1.4-.2a.489.489,0,0,1,.411.133l1.018.985a1.447,1.447,0,0,0,2.021,0l1.018-.985a.489.489,0,0,1,.411-.133l1.4.2a1.447,1.447,0,0,0,1.635-1.188l.245-1.395a.489.489,0,0,1,.254-.349l1.251-.664a1.448,1.448,0,0,0,.625-1.922ZM25.134,10.9l-1.251.664a1.444,1.444,0,0,0-.75,1.033l-.245,1.395a.49.49,0,0,1-.553.4l-1.4-.2a1.444,1.444,0,0,0-1.214.394L18.7,15.57a.49.49,0,0,1-.684,0L17,14.586a1.443,1.443,0,0,0-1.007-.409,1.476,1.476,0,0,0-.207.015l-1.4.2a.49.49,0,0,1-.553-.4l-.245-1.395a1.444,1.444,0,0,0-.75-1.033L11.584,10.9a.49.49,0,0,1-.211-.65l.622-1.272a1.444,1.444,0,0,0,0-1.277l-.622-1.272a.49.49,0,0,1,.211-.65l1.251-.664a1.444,1.444,0,0,0,.75-1.033l.245-1.395a.49.49,0,0,1,.553-.4l1.4.2A1.444,1.444,0,0,0,17,2.085L18.017,1.1a.49.49,0,0,1,.684,0l1.018.985a1.444,1.444,0,0,0,1.214.394l1.4-.2a.49.49,0,0,1,.553.4l.245,1.395a1.444,1.444,0,0,0,.75,1.033l1.251.664a.49.49,0,0,1,.211.65L24.724,7.7a1.444,1.444,0,0,0,0,1.277l.622,1.272A.49.49,0,0,1,25.134,10.9Z" transform="translate(-10.359 0.002)" fill="url(#a)"/></g></g><g transform="translate(14.705 4.681)"><g transform="translate(0)"><path d="M150.959,143.932a.481.481,0,0,0-.68,0l-6.347,6.347a.481.481,0,1,0,.68.68l6.347-6.347A.481.481,0,0,0,150.959,143.932Z" transform="translate(-143.792 -143.792)" fill="url(#a)"/></g></g><g transform="translate(14.672 4.008)"><path d="M144.565,123.116a1.763,1.763,0,1,0,1.763,1.763A1.765,1.765,0,0,0,144.565,123.116Zm0,2.565a.8.8,0,1,1,.8-.8A.8.8,0,0,1,144.565,125.681Z" transform="translate(-142.802 -123.116)" fill="url(#a)"/></g><g transform="translate(18.519 9.137)"><path d="M262.685,280.61a1.763,1.763,0,1,0,1.763,1.763A1.765,1.765,0,0,0,262.685,280.61Zm0,2.565a.8.8,0,1,1,.8-.8A.8.8,0,0,1,262.685,283.175Z" transform="translate(-260.922 -280.61)" fill="url(#a)"/></g></g></svg>