<svg xmlns="http://www.w3.org/2000/svg" xmlns:xlink="http://www.w3.org/1999/xlink" width="28.764" height="38.154" viewBox="0 0 28.764 38.154">
  <defs>
    <linearGradient id="linear-gradient" x1="0.5" x2="0.5" y2="1" gradientUnits="objectBoundingBox">
      <stop offset="0" stop-color="#f9a924"/>
      <stop offset="1" stop-color="#ff9b07"/>
    </linearGradient>
  </defs>
  <g id="document-3" transform="translate(-48.583)">
    <g id="Group_6253" data-name="Group 6253" transform="translate(48.583 0)">
      <g id="Group_6252" data-name="Group 6252" transform="translate(0)">
        <path id="Path_6741" data-name="Path 6741" d="M164.079,166.632l-3.75,3.75-1.121-1.121a.82.82,0,0,0-1.16,1.16l1.7,1.7a.841.841,0,0,0,1.16,0l4.33-4.33a.82.82,0,1,0-1.16-1.16Z" transform="translate(-147.26 -150.319)" fill="url(#linear-gradient)"/>
        <path id="Path_6742" data-name="Path 6742" d="M129.484,122a7.271,7.271,0,0,0-5.141,12.409,7.392,7.392,0,0,0,5.141,2.126,7.267,7.267,0,1,0,0-14.535Zm3.943,11.21a5.567,5.567,0,0,1-9.51-3.943,5.255,5.255,0,0,1,1.624-3.943,5.576,5.576,0,0,1,7.886,7.886Z" transform="translate(-115.101 -110.21)" fill="url(#linear-gradient)"/>
        <path id="Path_6743" data-name="Path 6743" d="M77.27,7.615V7.577L69.925.193,69.886.155a.038.038,0,0,1-.039-.039.038.038,0,0,1-.039-.039A.636.636,0,0,0,69.423,0H51.215A2.629,2.629,0,0,0,49.36.773a2.7,2.7,0,0,0-.773,1.856v32.9a2.567,2.567,0,0,0,.734,1.856,2.774,2.774,0,0,0,1.856.773H74.718a2.572,2.572,0,0,0,1.817-.734l.039-.039a2.7,2.7,0,0,0,.773-1.856V8A1.144,1.144,0,0,0,77.27,7.615ZM70.118,2.783h.039l4.368,4.368H71.317a1.248,1.248,0,0,1-.812-.309L70.466,6.8a1.205,1.205,0,0,1-.348-.812Zm5.605,32.7a.968.968,0,0,1-.309.7l-.039.039a1.1,1.1,0,0,1-.657.271h-23.5a1.111,1.111,0,0,1-.7-.271.932.932,0,0,1-.271-.7V2.59H50.21a1.111,1.111,0,0,1,.271-.7.932.932,0,0,1,.7-.271H68.495V5.992A2.807,2.807,0,0,0,69.345,8l.039.039a2.717,2.717,0,0,0,1.933.773h4.407Z" transform="translate(-48.583 0)" fill="url(#linear-gradient)"/>
      </g>
    </g>
  </g>
</svg>
