<svg xmlns="http://www.w3.org/2000/svg" width="28.764" height="38.154" viewBox="0 0 28.764 38.154">
  <g id="document-3" transform="translate(-48.583)">
    <g id="Group_6253" data-name="Group 6253" transform="translate(48.583 0)">
      <g id="Group_6252" data-name="Group 6252" transform="translate(0)">
        <path id="Path_6743" data-name="Path 6743" d="M77.27,7.615V7.577L69.925.193,69.886.155a.038.038,0,0,1-.039-.039.038.038,0,0,1-.039-.039A.636.636,0,0,0,69.423,0H51.215A2.629,2.629,0,0,0,49.36.773a2.7,2.7,0,0,0-.773,1.856v32.9a2.567,2.567,0,0,0,.734,1.856,2.774,2.774,0,0,0,1.856.773H74.718a2.572,2.572,0,0,0,1.817-.734l.039-.039a2.7,2.7,0,0,0,.773-1.856V8A1.144,1.144,0,0,0,77.27,7.615ZM70.118,2.783h.039l4.368,4.368H71.317a1.248,1.248,0,0,1-.812-.309L70.466,6.8a1.205,1.205,0,0,1-.348-.812Zm5.605,32.7a.968.968,0,0,1-.309.7l-.039.039a1.1,1.1,0,0,1-.657.271h-23.5a1.111,1.111,0,0,1-.7-.271.932.932,0,0,1-.271-.7V2.59H50.21a1.111,1.111,0,0,1,.271-.7.932.932,0,0,1,.7-.271H68.495V5.992A2.807,2.807,0,0,0,69.345,8l.039.039a2.717,2.717,0,0,0,1.933.773h4.407Z" transform="translate(-48.583 0)" fill="#333"/>
      </g>
    </g>
  </g>
</svg>
