<svg xmlns="http://www.w3.org/2000/svg" xmlns:xlink="http://www.w3.org/1999/xlink" width="22" height="22.821" viewBox="0 0 22 22.821">
  <defs>
    <linearGradient id="linear-gradient" x1="0.5" x2="0.5" y2="1" gradientUnits="objectBoundingBox">
      <stop offset="0" stop-color="#f9a924"/>
      <stop offset="1" stop-color="#ff9b07"/>
    </linearGradient>
  </defs>
  <g id="event" transform="translate(-7.804)">
    <g id="Group_5747" data-name="Group 5747" transform="translate(7.804)">
      <g id="Group_5746" data-name="Group 5746" transform="translate(0)">
        <path id="Path_6522" data-name="Path 6522" d="M27.852,2.476q-.07,0-.14,0h-1.76V.962A1.069,1.069,0,0,0,24.77,0H23.148A.947.947,0,0,0,22.1.962V2.475H15.5V.962A.947.947,0,0,0,14.459,0H12.837a1.069,1.069,0,0,0-1.182.962V2.475H9.9A2.035,2.035,0,0,0,7.8,4.452q0,.07,0,.14V20.484A2.237,2.237,0,0,0,9.9,22.821H27.712a2.237,2.237,0,0,0,2.09-2.337V4.592A2.035,2.035,0,0,0,27.852,2.476ZM23.148,1.1h1.7V4.124h-1.7Zm-10.311,0H14.4V4.124H12.837ZM28.7,20.484a1.142,1.142,0,0,1-.99,1.237H9.9a1.142,1.142,0,0,1-.99-1.237V8.8H28.7V20.484Zm0-15.892V7.7H8.905V4.592A.935.935,0,0,1,9.9,3.574h1.76v.6a1.132,1.132,0,0,0,1.182,1.045h1.622A1.017,1.017,0,0,0,15.5,4.235q0-.028,0-.056v-.6h6.6v.6a1.017,1.017,0,0,0,.989,1.045H24.77a1.132,1.132,0,0,0,1.182-1.045v-.6h1.76a.935.935,0,0,1,.99,1.017Z" transform="translate(-7.804)" fill="url(#linear-gradient)"/>
        <path id="Path_6523" data-name="Path 6523" d="M119.8,200.285l-.495,2.75a.55.55,0,0,0,.8.577l2.475-1.292,2.475,1.292.247.055a.522.522,0,0,0,.33-.11.55.55,0,0,0,.22-.522l-.495-2.75,2.007-1.925a.6.6,0,0,0,.137-.577.578.578,0,0,0-.44-.357l-2.75-.412-1.237-2.5a.55.55,0,0,0-.99,0l-1.237,2.5-2.75.412a.577.577,0,0,0-.44.357.6.6,0,0,0,.137.577Zm1.512-2.227a.5.5,0,0,0,.385-.3l.88-1.76.88,1.76a.5.5,0,0,0,.385.3l1.952.275-1.4,1.347a.577.577,0,0,0-.165.495l.33,1.952-1.732-.935-.247-.055-.247.055-1.732.935.33-1.952a.577.577,0,0,0-.165-.495l-1.4-1.347Z" transform="translate(-111.848 -183.981)" fill="url(#linear-gradient)"/>
      </g>
    </g>
  </g>
</svg>
