<svg xmlns="http://www.w3.org/2000/svg" width="22" height="20" viewBox="0 0 22 20">
  <g id="Group_5764" data-name="Group 5764" transform="translate(-340 -244)">
    <g id="Rectangle_5424" data-name="Rectangle 5424" transform="translate(340 245)" fill="#707070" stroke="#707070" stroke-width="1">
      <rect width="22" height="2" rx="1" stroke="none"/>
      <rect x="0.5" y="0.5" width="21" height="1" rx="0.5" fill="none"/>
    </g>
    <g id="Rectangle_5425" data-name="Rectangle 5425" transform="translate(340 253)" fill="#707070" stroke="#707070" stroke-width="1">
      <rect width="22" height="2" rx="1" stroke="none"/>
      <rect x="0.5" y="0.5" width="21" height="1" rx="0.5" fill="none"/>
    </g>
    <g id="Rectangle_5426" data-name="Rectangle 5426" transform="translate(340 261)" fill="#707070" stroke="#707070" stroke-width="1">
      <rect width="22" height="2" rx="1" stroke="none"/>
      <rect x="0.5" y="0.5" width="21" height="1" rx="0.5" fill="none"/>
    </g>
    <g id="Rectangle_5427" data-name="Rectangle 5427" transform="translate(356 244)" fill="#707070" stroke="#707070" stroke-width="1">
      <rect width="3" height="4" rx="1.5" stroke="none"/>
      <rect x="0.5" y="0.5" width="2" height="3" rx="1" fill="none"/>
    </g>
    <g id="Rectangle_5428" data-name="Rectangle 5428" transform="translate(342 252)" fill="#707070" stroke="#707070" stroke-width="1">
      <rect width="3" height="4" rx="1.5" stroke="none"/>
      <rect x="0.5" y="0.5" width="2" height="3" rx="1" fill="none"/>
    </g>
    <g id="Rectangle_5429" data-name="Rectangle 5429" transform="translate(351 260)" fill="#707070" stroke="#707070" stroke-width="1">
      <rect width="3" height="4" rx="1.5" stroke="none"/>
      <rect x="0.5" y="0.5" width="2" height="3" rx="1" fill="none"/>
    </g>
  </g>
</svg>
