<svg xmlns="http://www.w3.org/2000/svg" xmlns:xlink="http://www.w3.org/1999/xlink" width="14" height="11.904" viewBox="0 0 14 11.904"><defs><linearGradient id="a" x1="0.5" x2="0.5" y2="1" gradientUnits="objectBoundingBox"><stop offset="0" stop-color="#f9a924"/><stop offset="1" stop-color="#ff9b07"/></linearGradient></defs><g transform="translate(-120 -156.002)"><path d="M138.45,160H126.116a.849.849,0,0,0,0,1.7H138.45a.849.849,0,0,0,0-1.7Z" transform="translate(-5.283 -3.999)" fill="url(#a)"/><path d="M138.45,225.3H126.116a.849.849,0,0,0,0,1.7H138.45a.849.849,0,0,0,0-1.7Z" transform="translate(-5.283 -64.195)" fill="url(#a)"/><path d="M138.45,290.6H126.116a.849.849,0,0,0,0,1.7H138.45a.849.849,0,0,0,0-1.7Z" transform="translate(-5.283 -124.391)" fill="url(#a)"/></g></svg>