<svg xmlns="http://www.w3.org/2000/svg" width="29.127" height="30" viewBox="0 0 29.127 30"><g transform="translate(-1118 -1864)"><path d="M20.137,9.244A.813.813,0,0,0,19.557,9H4.065A4.07,4.07,0,0,0,0,13.065v21.87A4.07,4.07,0,0,0,4.065,39h21a4.07,4.07,0,0,0,4.065-4.065v-16.2a.813.813,0,0,0-.232-.569Zm.134,2.458,6.039,6.154H21.9a1.628,1.628,0,0,1-1.626-1.626Zm4.791,25.672h-21a2.442,2.442,0,0,1-2.439-2.439V13.065a2.442,2.442,0,0,1,2.439-2.439h14.58v5.6A3.256,3.256,0,0,0,21.9,19.482h5.6V34.935A2.442,2.442,0,0,1,25.062,37.374Zm0,0" transform="translate(1118 1855)" fill="#333"/><path d="M114.623,179.92l-3.354-.5-1.49-3.021a.813.813,0,0,0-1.458,0l-1.489,3.021-3.354.5a.813.813,0,0,0-.44,1.394l2.435,2.311-.578,3.347a.813.813,0,0,0,1.18.857l2.977-1.571,2.977,1.571a.813.813,0,0,0,1.181-.857l-.579-3.347,2.435-2.311a.813.813,0,0,0-.44-1.394Zm-3.429,2.825a.814.814,0,0,0-.242.728l.371,2.147-1.894-1a.812.812,0,0,0-.759,0l-1.894,1,.371-2.147a.812.812,0,0,0-.241-.728l-1.539-1.461,2.124-.315a.812.812,0,0,0,.61-.445l.949-1.924.949,1.924a.813.813,0,0,0,.61.445l2.124.315Zm0,0" transform="translate(1023.266 1696.831)" fill="#333"/></g></svg>