<svg xmlns="http://www.w3.org/2000/svg" width="70" height="70.002" viewBox="0 0 70 70.002">
  <g id="invoice" transform="translate(-0.008)">
    <g id="Group_5846" data-name="Group 5846" transform="translate(29.977 63.439)">
      <g id="Group_5845" data-name="Group 5845">
        <path id="Path_6595" data-name="Path 6595" d="M227.864,464h-7.293a1.367,1.367,0,0,0,0,2.734h7.293a1.367,1.367,0,0,0,0-2.734Z" transform="translate(-219.204 -464.002)" fill="#333"/>
      </g>
    </g>
    <g id="Group_5848" data-name="Group 5848" transform="translate(0.008 -0.001)">
      <g id="Group_5847" data-name="Group 5847" transform="translate(0 0)">
        <path id="Path_6596" data-name="Path 6596" d="M68.641,59.611H67V24.829a4.793,4.793,0,0,0-4.706-4.865H57.139V1.367A1.367,1.367,0,0,0,54.8.4L51.616,3.59,48.426.4a1.367,1.367,0,0,0-1.934,0L43.3,3.589,40.114.4A1.367,1.367,0,0,0,38.18.4L34.99,3.589,31.8.4a1.367,1.367,0,0,0-1.934,0L26.678,3.589,23.489.4a1.367,1.367,0,0,0-1.934,0L18.366,3.589,15.176.4a1.367,1.367,0,0,0-2.332,1V19.964H7.721a4.793,4.793,0,0,0-4.706,4.865V59.611H1.375A1.367,1.367,0,0,0,.008,60.978V63.3a6.707,6.707,0,0,0,6.7,6.7h56.6a6.707,6.707,0,0,0,6.7-6.7V60.978A1.367,1.367,0,0,0,68.641,59.611ZM15.578,4.669,17.4,6.49a1.367,1.367,0,0,0,1.934,0L22.522,3.3,25.711,6.49a1.367,1.367,0,0,0,1.934,0L30.834,3.3,34.023,6.49a1.367,1.367,0,0,0,1.934,0L39.147,3.3,42.336,6.49a1.367,1.367,0,0,0,1.934,0L47.459,3.3,50.648,6.49a1.367,1.367,0,0,0,1.934,0L54.4,4.668v43.91H15.578ZM14.211,51.312H55.772a1.367,1.367,0,0,0,1.367-1.367V46.418h1.7a1.069,1.069,0,0,1,1.067,1.067V52.4a1.069,1.069,0,0,1-1.067,1.067H11.175A1.069,1.069,0,0,1,10.108,52.4v-4.92a1.069,1.069,0,0,1,1.067-1.067h1.669v3.527A1.367,1.367,0,0,0,14.211,51.312ZM7.721,22.7h5.123V43.683H11.175a3.806,3.806,0,0,0-3.8,3.8V52.4a3.806,3.806,0,0,0,3.8,3.8H58.841a3.806,3.806,0,0,0,3.8-3.8v-4.92a3.806,3.806,0,0,0-3.8-3.8h-1.7V22.7h5.155a2.058,2.058,0,0,1,1.972,2.131V59.611H5.75V24.829h0A2.058,2.058,0,0,1,7.721,22.7ZM67.273,63.3a3.969,3.969,0,0,1-3.965,3.965H6.707A3.969,3.969,0,0,1,2.742,63.3v-.957H67.273Z" transform="translate(-0.008 0.001)" fill="#333"/>
      </g>
    </g>
    <g id="Group_5852" data-name="Group 5852" transform="translate(43.132 18.651)">
      <g id="Group_5851" data-name="Group 5851">
        <path id="Path_6598" data-name="Path 6598" d="M319.073,136.42h-2.288a1.367,1.367,0,1,0,0,2.734h2.288a1.367,1.367,0,0,0,0-2.734Z" transform="translate(-315.417 -136.42)" fill="#333"/>
      </g>
    </g>
    <g id="Group_5895" data-name="Group 5895" transform="translate(31.932 18.651)">
      <g id="Group_5851-2" data-name="Group 5851">
        <path id="Path_6598-2" data-name="Path 6598" d="M319.073,136.42h-2.288a1.367,1.367,0,1,0,0,2.734h2.288a1.367,1.367,0,0,0,0-2.734Z" transform="translate(-315.417 -136.42)" fill="#333"/>
      </g>
    </g>
    <g id="Group_5854" data-name="Group 5854" transform="translate(21.828 18.651)">
      <g id="Group_5853" data-name="Group 5853">
        <path id="Path_6599" data-name="Path 6599" d="M163.26,136.42h-2.288a1.367,1.367,0,0,0,0,2.734h2.288a1.367,1.367,0,1,0,0-2.734Z" transform="translate(-159.604 -136.42)" fill="#333"/>
      </g>
    </g>
    <g id="Group_5856" data-name="Group 5856" transform="translate(27.488 31.72)">
      <g id="Group_5855" data-name="Group 5855">
        <path id="Path_6600" data-name="Path 6600" d="M220.742,232.009H202.364a1.367,1.367,0,1,0,0,2.734h18.378a1.367,1.367,0,0,0,0-2.734Z" transform="translate(-200.997 -232.009)" fill="#333"/>
      </g>
    </g>
    <g id="Group_5858" data-name="Group 5858" transform="translate(21.383 31.72)">
      <g id="Group_5857" data-name="Group 5857">
        <path id="Path_6601" data-name="Path 6601" d="M158.68,232.41a1.367,1.367,0,1,0,.4.967A1.377,1.377,0,0,0,158.68,232.41Z" transform="translate(-156.346 -232.009)" fill="#333"/>
      </g>
    </g>
    <g id="Group_5860" data-name="Group 5860" transform="translate(27.488 39.377)">
      <g id="Group_5859" data-name="Group 5859">
        <path id="Path_6602" data-name="Path 6602" d="M220.742,288.007H202.364a1.367,1.367,0,1,0,0,2.734h18.378a1.367,1.367,0,1,0,0-2.734Z" transform="translate(-200.997 -288.007)" fill="#333"/>
      </g>
    </g>
    <g id="Group_5862" data-name="Group 5862" transform="translate(21.383 39.377)">
      <g id="Group_5861" data-name="Group 5861">
        <path id="Path_6603" data-name="Path 6603" d="M158.68,288.408a1.367,1.367,0,1,0,.4.967A1.377,1.377,0,0,0,158.68,288.408Z" transform="translate(-156.346 -288.007)" fill="#333"/>
      </g>
    </g>
  </g>
</svg>
