<svg xmlns="http://www.w3.org/2000/svg" xmlns:xlink="http://www.w3.org/1999/xlink" width="50" height="43.168" viewBox="0 0 50 43.168"><defs><linearGradient id="a" x1="0.5" x2="0.5" y2="1" gradientUnits="objectBoundingBox"><stop offset="0" stop-color="#f9a924"/><stop offset="1" stop-color="#ff9b07"/></linearGradient></defs><g transform="translate(0 -34.973)"><g transform="translate(0 34.972)"><g transform="translate(0 0)"><path d="M47.33,34.972H16.046a.732.732,0,1,0,0,1.465H47.33a1.206,1.206,0,0,1,1.2,1.2v4.646H1.465V37.642a1.206,1.206,0,0,1,1.2-1.2H13.056a.732.732,0,1,0,0-1.465H2.67A2.673,2.673,0,0,0,0,37.642V76.523a1.62,1.62,0,0,0,1.618,1.618h15.6a.732.732,0,0,0,0-1.465H13.734V59.99L15.159,56.6a.733.733,0,0,0,.037-.454L13.725,50a.732.732,0,0,0-.712-.562H10.072A.732.732,0,0,0,9.359,50L7.889,56.147a.733.733,0,0,0,.037.454l1.413,3.362V76.676H1.618a.153.153,0,0,1-.153-.153V43.752h47.07v3.2a.732.732,0,1,0,1.465,0V37.642A2.673,2.673,0,0,0,47.33,34.972ZM10.649,50.9h1.785l1.28,5.35-1.332,3.168a.729.729,0,0,0-.114.393V76.677H10.8V59.816a.73.73,0,0,0-.057-.284L9.369,56.255Z" transform="translate(0 -34.972)" fill="url(#a)"/></g></g><g transform="translate(19.48 49.214)"><path d="M229.264,180.806a.732.732,0,0,0-.732.732v26.577a.153.153,0,0,1-.153.153H215.052v-3.913a10.615,10.615,0,0,0,4.758-14.927,10.675,10.675,0,0,0-3.713-3.793,1.422,1.422,0,0,0-1.433-.023,1.4,1.4,0,0,0-.718,1.229v5.724h-6.669v-5.724a1.4,1.4,0,0,0-.718-1.229,1.422,1.422,0,0,0-1.433.023A10.6,10.6,0,0,0,200,194.718a10.566,10.566,0,0,0,6.169,9.637v3.913h-5.962a.732.732,0,0,0,0,1.465h28.17A1.62,1.62,0,0,0,230,208.116V181.538A.733.733,0,0,0,229.264,180.806Zm-15.677,23.069v4.395h-2.243v-7.242a.732.732,0,0,0-1.465,0v7.242h-2.243v-4.395a.732.732,0,0,0-.457-.679,9.147,9.147,0,0,1-1.367-16.263V193.3a.732.732,0,0,0,.732.732h8.134a.732.732,0,0,0,.732-.732v-6.365a9.147,9.147,0,0,1-1.367,16.263A.732.732,0,0,0,213.588,203.875Z" transform="translate(-199.477 -180.806)" fill="url(#a)"/></g><g transform="translate(6.51 38.765)"><g transform="translate(0 0)"><path d="M93.518,73.812H67.391a.732.732,0,1,0,0,1.465H93.518a.732.732,0,1,0,0-1.465Z" transform="translate(-66.659 -73.812)" fill="url(#a)"/></g></g><g transform="translate(36.178 38.566)"><g transform="translate(0 0)"><path d="M371.2,71.775a.732.732,0,0,0-.732.732v.127a.732.732,0,1,0,1.465,0v-.127A.732.732,0,0,0,371.2,71.775Z" transform="translate(-370.464 -71.775)" fill="url(#a)"/></g></g><g transform="translate(39.102 38.566)"><g transform="translate(0 0)"><path d="M401.134,71.775a.732.732,0,0,0-.732.732v.127a.732.732,0,0,0,1.465,0v-.127A.732.732,0,0,0,401.134,71.775Z" transform="translate(-400.402 -71.775)" fill="url(#a)"/></g></g><g transform="translate(42.025 38.566)"><g transform="translate(0 0)"><path d="M431.073,71.775a.732.732,0,0,0-.732.732v.127a.732.732,0,0,0,1.465,0v-.127A.732.732,0,0,0,431.073,71.775Z" transform="translate(-430.341 -71.775)" fill="url(#a)"/></g></g><g transform="translate(16.974 50.286)"><g transform="translate(0 0)"><path d="M177.031,193.024h-.508v-.508a.732.732,0,0,0-1.465,0v.508h-.508a.732.732,0,0,0,0,1.465h.508V195a.732.732,0,0,0,1.465,0v-.508h.508a.732.732,0,0,0,0-1.465Z" transform="translate(-173.817 -191.783)" fill="url(#a)"/></g></g><g transform="translate(38.322 50.35)"><path d="M395.634,193.688h-.508v-.508a.732.732,0,0,0-1.465,0v.508h-.508a.732.732,0,0,0,0,1.465h.508v.508a.732.732,0,0,0,1.465,0v-.508h.508a.732.732,0,0,0,0-1.465Z" transform="translate(-392.42 -192.447)" fill="url(#a)"/></g></g></svg>