<svg xmlns="http://www.w3.org/2000/svg" width="70" height="59.055" viewBox="0 0 70 59.055">
  <g id="master-card" transform="translate(0 -40.031)">
    <g id="Group_5864" data-name="Group 5864" transform="translate(15.525 76.227)">
      <g id="Group_5863" data-name="Group 5863">
        <path id="Path_6604" data-name="Path 6604" d="M124.9,304.779h-9.973a1.367,1.367,0,0,0,0,2.734H124.9a1.367,1.367,0,0,0,0-2.734Z" transform="translate(-113.557 -304.779)" fill="#333"/>
      </g>
    </g>
    <g id="Group_5866" data-name="Group 5866" transform="translate(32.247 76.227)">
      <g id="Group_5865" data-name="Group 5865">
        <path id="Path_6605" data-name="Path 6605" d="M247.206,304.779h-9.973a1.367,1.367,0,1,0,0,2.734h9.973a1.367,1.367,0,1,0,0-2.734Z" transform="translate(-235.866 -304.779)" fill="#333"/>
      </g>
    </g>
    <g id="Group_5868" data-name="Group 5868" transform="translate(49.201 76.227)">
      <g id="Group_5867" data-name="Group 5867">
        <path id="Path_6606" data-name="Path 6606" d="M371.208,304.779h-9.973a1.367,1.367,0,0,0,0,2.734h9.973a1.367,1.367,0,0,0,0-2.734Z" transform="translate(-359.868 -304.779)" fill="#333"/>
      </g>
    </g>
    <g id="Group_5870" data-name="Group 5870" transform="translate(42.754 81.848)">
      <g id="Group_5869" data-name="Group 5869">
        <path id="Path_6607" data-name="Path 6607" d="M326.8,345.89a5.593,5.593,0,0,0-4.238,1.943,5.605,5.605,0,1,0,0,7.325,5.6,5.6,0,1,0,4.238-9.268Zm-8.477,8.477a2.871,2.871,0,1,1,2.871-2.871A2.874,2.874,0,0,1,318.318,354.367Zm8.477,0a2.871,2.871,0,1,1,2.871-2.871A2.874,2.874,0,0,1,326.8,354.367Z" transform="translate(-312.713 -345.89)" fill="#333"/>
      </g>
    </g>
    <g id="Group_5872" data-name="Group 5872" transform="translate(15.459 61.819)">
      <g id="Group_5871" data-name="Group 5871">
        <path id="Path_6608" data-name="Path 6608" d="M126.17,199.392H114.44a1.367,1.367,0,0,0-1.367,1.367v7.487a1.367,1.367,0,0,0,1.367,1.367h11.73a1.367,1.367,0,0,0,1.367-1.367v-7.487A1.367,1.367,0,0,0,126.17,199.392Zm-1.367,7.487h-9v-4.753h9Z" transform="translate(-113.073 -199.392)" fill="#333"/>
      </g>
    </g>
    <g id="Group_5874" data-name="Group 5874" transform="translate(23.014 96.351)">
      <g id="Group_5873" data-name="Group 5873">
        <path id="Path_6609" data-name="Path 6609" d="M169.72,451.969H169.7a1.367,1.367,0,1,0,0,2.734h.021a1.367,1.367,0,1,0,0-2.734Z" transform="translate(-168.332 -451.969)" fill="#333"/>
      </g>
    </g>
    <g id="Group_5876" data-name="Group 5876" transform="translate(0 40.031)">
      <g id="Group_5875" data-name="Group 5875">
        <path id="Path_6610" data-name="Path 6610" d="M65.374,56.029H62.617V44.659a4.631,4.631,0,0,0-4.626-4.626h-19.3a1.367,1.367,0,0,0,0,2.734h19.3a1.893,1.893,0,0,1,1.891,1.891v4.124H2.734V44.659a1.893,1.893,0,0,1,1.891-1.891H26.113a1.367,1.367,0,0,0,0-2.734H4.626A4.631,4.631,0,0,0,0,44.659V78.465a4.631,4.631,0,0,0,4.626,4.626H7.383v11.37a4.631,4.631,0,0,0,4.626,4.626h6.439a1.367,1.367,0,1,0,0-2.734H12.008a1.893,1.893,0,0,1-1.891-1.891V60.655a1.893,1.893,0,0,1,1.891-1.891H65.375a1.893,1.893,0,0,1,1.891,1.891V94.461a1.893,1.893,0,0,1-1.891,1.891H29.484a1.367,1.367,0,1,0,0,2.734h35.89A4.631,4.631,0,0,0,70,94.461V60.655A4.631,4.631,0,0,0,65.374,56.029ZM7.383,60.655v19.7H4.626a1.893,1.893,0,0,1-1.891-1.891v-18.2H7.4C7.39,60.4,7.383,60.524,7.383,60.655Zm52.5-4.626H12.008a4.615,4.615,0,0,0-3.41,1.5H2.734V51.517H59.883Z" transform="translate(0 -40.033)" fill="#333"/>
      </g>
    </g>
    <g id="Group_5878" data-name="Group 5878" transform="translate(31.035 40.031)">
      <g id="Group_5877" data-name="Group 5877">
        <path id="Path_6611" data-name="Path 6611" d="M229.334,40.432a1.367,1.367,0,1,0,.4.967A1.378,1.378,0,0,0,229.334,40.432Z" transform="translate(-227 -40.031)" fill="#333"/>
      </g>
    </g>
  </g>
</svg>
