<svg xmlns="http://www.w3.org/2000/svg" xmlns:xlink="http://www.w3.org/1999/xlink" width="37.933" height="32.002" viewBox="0 0 37.933 32.002"><defs><linearGradient id="a" x1="0.5" x2="0.5" y2="1" gradientUnits="objectBoundingBox"><stop offset="0" stop-color="#f9a924"/><stop offset="1" stop-color="#ff9b07"/></linearGradient></defs><g transform="translate(0 -40.038)"><g transform="translate(8.524 57.663)"><path d="M118.053,287.11l-1.532-8.568a.741.741,0,1,0-1.459.261l1.532,8.568a.741.741,0,0,0,.728.611.75.75,0,0,0,.131-.012A.741.741,0,0,0,118.053,287.11Z" transform="translate(-115.051 -277.931)" fill="url(#a)"/></g><g transform="translate(21.204 60.559)"><path d="M286.943,317.023a.741.741,0,0,0-.741.741v5.672a.741.741,0,0,0,1.482,0v-5.672A.741.741,0,0,0,286.943,317.023Z" transform="translate(-286.202 -317.023)" fill="url(#a)"/></g><g transform="translate(21.204 57.663)"><path d="M287.465,278.15a.74.74,0,1,0,.217.524A.746.746,0,0,0,287.465,278.15Z" transform="translate(-286.2 -277.933)" fill="url(#a)"/></g><g transform="translate(15.247 57.663)"><path d="M206.539,277.934a.741.741,0,0,0-.741.741v8.568a.741.741,0,0,0,1.482,0v-8.568A.741.741,0,0,0,206.539,277.934Z" transform="translate(-205.798 -277.934)" fill="url(#a)"/></g><g transform="translate(26.395 57.663)"><path d="M358.669,277.943a.74.74,0,0,0-.86.6l-1.532,8.568a.741.741,0,1,0,1.459.261l1.532-8.568A.741.741,0,0,0,358.669,277.943Z" transform="translate(-356.265 -277.932)" fill="url(#a)"/></g><g transform="translate(18.082 70.556)"><path d="M245.334,452.179a.74.74,0,1,0,.217.524A.743.743,0,0,0,245.334,452.179Z" transform="translate(-244.069 -451.962)" fill="url(#a)"/></g><g transform="translate(0 48.033)"><path d="M35.71,147.948H33.957a.741.741,0,0,0,0,1.482H35.71a.742.742,0,0,1,.741.741v2.371a.742.742,0,0,1-.741.741H2.223a.742.742,0,0,1-.741-.741v-2.371a.742.742,0,0,1,.741-.741H3.729a.741.741,0,0,0,0-1.482H2.223A2.225,2.225,0,0,0,0,150.171v2.371a2.226,2.226,0,0,0,1.749,2.171L4.4,168.457a4.32,4.32,0,0,0,4.236,3.5h6.845a.741.741,0,1,0,0-1.482H8.639a2.836,2.836,0,0,1-2.781-2.3l-2.59-13.411h31.4l-2.59,13.411a2.836,2.836,0,0,1-2.781,2.3H21.945a.741.741,0,1,0,0,1.482h7.349a4.32,4.32,0,0,0,4.236-3.5l2.654-13.744a2.226,2.226,0,0,0,1.749-2.171v-2.371A2.225,2.225,0,0,0,35.71,147.948Z" transform="translate(0 -147.948)" fill="url(#a)"/></g><g transform="translate(6.031 40.038)"><path d="M106.6,48.212l-7.494-7.494a2.326,2.326,0,0,0-3.289,3.289l4.026,4.026h-11l4.026-4.026a2.326,2.326,0,0,0-3.289-3.289L82.09,48.212A2.326,2.326,0,0,0,85.379,51.5l1.986-1.986h13.844a.748.748,0,0,0,.108-.009l1.995,1.995a2.326,2.326,0,0,0,3.289-3.289ZM84.331,50.453a.844.844,0,0,1-1.193-1.193l7.494-7.494a.844.844,0,1,1,1.193,1.193Zm21.221,0a.844.844,0,0,1-1.193,0l-7.494-7.494a.844.844,0,0,1,1.193-1.193l7.494,7.494A.845.845,0,0,1,105.552,50.453Z" transform="translate(-81.41 -40.038)" fill="url(#a)"/></g></g></svg>