<svg xmlns="http://www.w3.org/2000/svg" width="17.516" height="16.806" viewBox="0 0 17.516 16.806">
  <g id="Group_5920_1_" transform="translate(-1125.92 -1872.675)">
    <path id="Path_6383_1_" d="M1141.794,1878.531l-4.272-.665-1.9-3.8a1.078,1.078,0,0,0-1.424-.475,1.143,1.143,0,0,0-.475.475l-1.9,3.8-4.272.665a.981.981,0,0,0-.854,1.139,1.082,1.082,0,0,0,.285.57l3.133,2.943-.76,4.272a1.073,1.073,0,0,0,.854,1.234,1.614,1.614,0,0,0,.664-.095l3.8-1.994,3.8,1.994a1.025,1.025,0,0,0,1.424-.475.834.834,0,0,0,.095-.665l-.76-4.272,3.133-2.943a.951.951,0,0,0,0-1.424,1.542,1.542,0,0,0-.57-.285Z" transform="translate(0 0)" fill="none" stroke="#707070" stroke-miterlimit="10" stroke-width="1.5"/>
  </g>
</svg>
