<svg xmlns="http://www.w3.org/2000/svg" width="14" height="15.166" viewBox="0 0 14 15.166"><g transform="translate(-2 -1)"><path d="M11.5,4.25A3.25,3.25,0,1,0,8.25,7.5,3.25,3.25,0,0,0,11.5,4.25Zm-5.417,0A2.167,2.167,0,1,1,8.25,6.417,2.167,2.167,0,0,1,6.083,4.25Z" transform="translate(0.75)" fill="#333"/><path d="M2,13.417A1.127,1.127,0,0,0,3.167,14.5H14.833A1.127,1.127,0,0,0,16,13.417V10.686a1.229,1.229,0,0,0-.052-.2,1.273,1.273,0,0,0-.135-.169c-.007-.005-.009-.013-.016-.018a11.188,11.188,0,0,0-13.584,0c-.007,0-.009.013-.016.018a.544.544,0,0,0-.077.09.541.541,0,0,0-.057.079,1.229,1.229,0,0,0-.062.2v2.731Zm12.833-2.441v2.441H3.167V10.976a9.952,9.952,0,0,1,11.667,0Z" transform="translate(0 1.666)" fill="#333"/></g></svg>