<svg xmlns="http://www.w3.org/2000/svg" xmlns:xlink="http://www.w3.org/1999/xlink" width="50" height="45.164" viewBox="0 0 50 45.164"><defs><linearGradient id="a" x1="0.5" x2="0.5" y2="1" gradientUnits="objectBoundingBox"><stop offset="0" stop-color="#f9a924"/><stop offset="1" stop-color="#ff9b07"/></linearGradient></defs><g transform="translate(0 -24.756)"><g transform="translate(0 24.755)"><path d="M49.268,37.586a.732.732,0,0,0-.732.732V53.967H30.355V26.22H45.672a2.867,2.867,0,0,1,2.863,2.863v6.245a.732.732,0,0,0,1.465,0V29.083a4.333,4.333,0,0,0-4.328-4.328H25.03a.732.732,0,0,0,0,1.465h3.86V42.932H1.465V29.083A2.867,2.867,0,0,1,4.328,26.22H22.04a.732.732,0,0,0,0-1.465H4.328A4.333,4.333,0,0,0,0,29.083V59.832a2.326,2.326,0,0,0,2.323,2.323H8.173a.732.732,0,1,0,0-1.465H2.323a.86.86,0,0,1-.859-.859v-4.4h47.07v4.4a.86.86,0,0,1-.859.859H11.163a.732.732,0,0,0,0,1.465H18.39a9.694,9.694,0,0,1-3.355,5.077,1.5,1.5,0,0,0,.906,2.687H34.06a1.5,1.5,0,0,0,.906-2.687,9.7,9.7,0,0,1-3.355-5.077H47.677A2.326,2.326,0,0,0,50,59.832V38.319A.732.732,0,0,0,49.268,37.586ZM28.89,53.967H1.465V44.4H28.89ZM34.08,68.4a.082.082,0,0,1,.013.012.056.056,0,0,1-.014.042.059.059,0,0,1-.019,0H15.94a.065.065,0,0,1-.018,0,.056.056,0,0,1-.015-.041.057.057,0,0,1,.013-.012,11.272,11.272,0,0,0,3.99-6.244H30.09A11.281,11.281,0,0,0,34.08,68.4Z" transform="translate(0 -24.755)" fill="url(#a)"/></g><g transform="translate(23.176 56.238)"><path d="M239.15,347.138a1.824,1.824,0,1,0,1.824,1.824A1.826,1.826,0,0,0,239.15,347.138Zm0,2.182a.359.359,0,1,1,.359-.359A.359.359,0,0,1,239.15,349.32Z" transform="translate(-237.326 -347.138)" fill="url(#a)"/></g><g transform="translate(11.973 30.889)"><path d="M127.658,89.222l-3.028-1.5a1.4,1.4,0,0,0-2.027,1.257v3.006a1.4,1.4,0,0,0,2.027,1.257l3.028-1.5a1.4,1.4,0,0,0,0-2.514Zm-3.59,2.661V89.075l2.828,1.4Z" transform="translate(-122.603 -87.572)" fill="url(#a)"/></g><g transform="translate(32.766 28.356)"><path d="M340.011,61.632h-3.124A1.367,1.367,0,0,0,335.522,63v3.124a1.367,1.367,0,0,0,1.366,1.366h3.124a1.367,1.367,0,0,0,1.366-1.366V63A1.367,1.367,0,0,0,340.011,61.632Zm-.1,4.39h-2.925V63.1h2.925Z" transform="translate(-335.522 -61.632)" fill="url(#a)"/></g><g transform="translate(39.863 28.203)"><path d="M410.463,60.062h-1.53a.732.732,0,0,0,0,1.465h1.53a.732.732,0,0,0,0-1.465Z" transform="translate(-408.201 -60.062)" fill="url(#a)"/></g><g transform="translate(39.863 30.851)"><path d="M413.453,87.174h-4.519a.732.732,0,0,0,0,1.465h4.519a.732.732,0,0,0,0-1.465Z" transform="translate(-408.202 -87.174)" fill="url(#a)"/></g><g transform="translate(39.863 32.647)"><path d="M413.453,105.568h-4.519a.732.732,0,0,0,0,1.465h4.519a.732.732,0,0,0,0-1.465Z" transform="translate(-408.202 -105.568)" fill="url(#a)"/></g><g transform="translate(32.766 37.314)"><path d="M340.011,153.361h-3.124a1.367,1.367,0,0,0-1.366,1.366v3.124a1.367,1.367,0,0,0,1.366,1.366h3.124a1.367,1.367,0,0,0,1.366-1.366v-3.124A1.367,1.367,0,0,0,340.011,153.361Zm-.1,4.39h-2.925v-2.925h2.925Z" transform="translate(-335.522 -153.361)" fill="url(#a)"/></g><g transform="translate(39.863 37.161)"><path d="M410.463,151.79h-1.53a.732.732,0,1,0,0,1.465h1.53a.732.732,0,0,0,0-1.465Z" transform="translate(-408.201 -151.79)" fill="url(#a)"/></g><g transform="translate(39.863 39.808)"><path d="M413.453,178.9h-4.519a.732.732,0,0,0,0,1.465h4.519a.732.732,0,0,0,0-1.465Z" transform="translate(-408.202 -178.902)" fill="url(#a)"/></g><g transform="translate(39.863 41.605)"><path d="M413.453,197.3h-4.519a.732.732,0,0,0,0,1.465h4.519a.732.732,0,0,0,0-1.465Z" transform="translate(-408.202 -197.297)" fill="url(#a)"/></g><g transform="translate(32.766 46.272)"><path d="M340.01,245.089h-3.124a1.367,1.367,0,0,0-1.366,1.366v3.124a1.367,1.367,0,0,0,1.366,1.366h3.124a1.367,1.367,0,0,0,1.366-1.366v-3.124A1.367,1.367,0,0,0,340.01,245.089Zm-.1,4.39h-2.925v-2.925h2.925Z" transform="translate(-335.521 -245.089)" fill="url(#a)"/></g><g transform="translate(39.863 46.119)"><path d="M410.463,243.519h-1.53a.732.732,0,1,0,0,1.465h1.53a.732.732,0,1,0,0-1.465Z" transform="translate(-408.201 -243.519)" fill="url(#a)"/></g><g transform="translate(39.863 48.766)"><path d="M413.453,270.631h-4.519a.732.732,0,0,0,0,1.465h4.519a.732.732,0,0,0,0-1.465Z" transform="translate(-408.202 -270.631)" fill="url(#a)"/></g><g transform="translate(39.863 50.563)"><path d="M413.453,289.025h-4.519a.732.732,0,0,0,0,1.465h4.519a.732.732,0,0,0,0-1.465Z" transform="translate(-408.202 -289.025)" fill="url(#a)"/></g><g transform="translate(23.767 46.217)"><path d="M246.165,244.527H244.1a.732.732,0,0,0,0,1.465h2.061a.732.732,0,0,0,0-1.465Z" transform="translate(-243.372 -244.527)" fill="url(#a)"/></g><g transform="translate(23.767 50.026)"><path d="M246.166,283.535h-2.061a.732.732,0,1,0,0,1.465h2.061a.732.732,0,0,0,0-1.465Z" transform="translate(-243.373 -283.535)" fill="url(#a)"/></g><g transform="translate(3.442 46.217)"><path d="M50.618,244.527H35.974a.732.732,0,1,0,0,1.465H50.618a.732.732,0,0,0,0-1.465Z" transform="translate(-35.242 -244.527)" fill="url(#a)"/></g><g transform="translate(3.442 48.612)"><path d="M38.976,269.05h-3a.732.732,0,0,0,0,1.465h3a.732.732,0,0,0,0-1.465Z" transform="translate(-35.242 -269.05)" fill="url(#a)"/></g><g transform="translate(3.442 51.004)"><path d="M38.976,293.544h-3a.732.732,0,0,0,0,1.465h3a.732.732,0,0,0,0-1.465Z" transform="translate(-35.242 -293.544)" fill="url(#a)"/></g></g></svg>