<svg xmlns="http://www.w3.org/2000/svg" width="70" height="75.932" viewBox="0 0 70 75.932">
  <g id="wallet" transform="translate(-20)">
    <g id="Group_5880" data-name="Group 5880" transform="translate(20 17.5)">
      <g id="Group_5879" data-name="Group 5879" transform="translate(0)">
        <path id="Path_6612" data-name="Path 6612" d="M83.771,118H75.1a1.483,1.483,0,0,0,0,2.966h8.676a3.266,3.266,0,0,1,3.263,3.263v16.925a3.519,3.519,0,0,1-3.515,3.515H81.992V133.72a6.236,6.236,0,0,0-6.229-6.229H53.888v-4.523a1.483,1.483,0,0,0-2.966,0v4.523H26.229a3.263,3.263,0,1,1,0-6.525h9.814a1.483,1.483,0,0,0,0-2.966H26.229A6.236,6.236,0,0,0,20,124.229c0,.082,0,.164.006.246,0,.041-.006.082-.006.124V170.2a6.236,6.236,0,0,0,6.229,6.229l57.542,0A6.236,6.236,0,0,0,90,170.2V124.229A6.236,6.236,0,0,0,83.771,118Zm-4.746,52.2a3.266,3.266,0,0,1-3.194,3.261h-.069l-.034,0h-49.5a3.266,3.266,0,0,1-3.263-3.263V129.532a6.191,6.191,0,0,0,3.263.926H75.763a3.266,3.266,0,0,1,3.263,3.263v10.948H65.678a9.195,9.195,0,1,0,0,18.39H79.025Zm8.008,0a3.266,3.266,0,0,1-3.263,3.263h-2.7a6.19,6.19,0,0,0,.925-3.261v-7.145h.89a7.078,7.078,0,0,0,4.153-1.342Zm0-14.262a4.157,4.157,0,0,1-4.153,4.153h-17.2a6.229,6.229,0,1,1,0-12.458H83.519a6.441,6.441,0,0,0,3.515-1.04Z" transform="translate(-20 -118)" fill="#333"/>
      </g>
    </g>
    <g id="Group_5882" data-name="Group 5882" transform="translate(55.892 9.665)">
      <g id="Group_5881" data-name="Group 5881">
        <path id="Path_6613" data-name="Path 6613" d="M268.983,65.168a6.968,6.968,0,1,0,6.968,6.968A6.976,6.976,0,0,0,268.983,65.168Zm0,10.97a4,4,0,1,1,4-4A4.006,4.006,0,0,1,268.983,76.138Z" transform="translate(-262.015 -65.168)" fill="#333"/>
      </g>
    </g>
    <g id="Group_5884" data-name="Group 5884" transform="translate(41.506)">
      <g id="Group_5883" data-name="Group 5883" transform="translate(0)">
        <path id="Path_6614" data-name="Path 6614" d="M171.983,0a6.968,6.968,0,1,0,6.968,6.968A6.976,6.976,0,0,0,171.983,0Zm0,10.97a4,4,0,1,1,4-4A4.006,4.006,0,0,1,171.983,10.97Z" transform="translate(-165.015)" fill="#333"/>
      </g>
    </g>
    <g id="Group_5886" data-name="Group 5886" transform="translate(67.654 0.146)">
      <g id="Group_5885" data-name="Group 5885">
        <path id="Path_6615" data-name="Path 6615" d="M347.458,3.31h-.842V2.468a1.483,1.483,0,1,0-2.966,0V3.31h-.841a1.483,1.483,0,1,0,0,2.966h.841v.842a1.483,1.483,0,1,0,2.966,0V6.276h.842a1.483,1.483,0,0,0,0-2.966Z" transform="translate(-341.326 -0.985)" fill="#333"/>
      </g>
    </g>
    <g id="Group_5888" data-name="Group 5888" transform="translate(42.196 14.497)">
      <g id="Group_5887" data-name="Group 5887" transform="translate(0)">
        <path id="Path_6616" data-name="Path 6616" d="M171.15,97.75a1.483,1.483,0,0,0-1.483,1.483v6.006a1.483,1.483,0,1,0,2.966,0V99.233A1.483,1.483,0,0,0,171.15,97.75Z" transform="translate(-169.667 -97.75)" fill="#333"/>
      </g>
    </g>
    <g id="Group_5890" data-name="Group 5890" transform="translate(65.097 52.065)">
      <g id="Group_5889" data-name="Group 5889">
        <path id="Path_6617" data-name="Path 6617" d="M326.612,351.5a1.482,1.482,0,1,0,.435,1.048A1.5,1.5,0,0,0,326.612,351.5Z" transform="translate(-324.08 -351.07)" fill="#333"/>
      </g>
    </g>
    <g id="Group_5892" data-name="Group 5892" transform="translate(28.355 38.559)">
      <g id="Group_5891" data-name="Group 5891">
        <path id="Path_6618" data-name="Path 6618" d="M77.817,260a1.483,1.483,0,0,0-1.483,1.483v12.21a1.483,1.483,0,1,0,2.966,0v-12.21A1.483,1.483,0,0,0,77.817,260Z" transform="translate(-76.334 -260)" fill="#333"/>
      </g>
    </g>
    <g id="Group_5894" data-name="Group 5894" transform="translate(28.354 55.887)">
      <g id="Group_5893" data-name="Group 5893">
        <path id="Path_6619" data-name="Path 6619" d="M78.862,377.275a1.482,1.482,0,1,0,.435,1.048A1.492,1.492,0,0,0,78.862,377.275Z" transform="translate(-76.33 -376.84)" fill="#333"/>
      </g>
    </g>
  </g>
</svg>
